<svg xmlns="http://www.w3.org/2000/svg" viewBox="0 0 113.91 240.67">
  <g id="Layer_2" data-name="Layer 2">
    <g id="Layer_12" data-name="Layer 12">
      <path d="M24.2,115.43a5.75,5.75,0,0,1-3.62-.69,5.14,5.14,0,0,0-2.53-.59,8.82,8.82,0,0,0,4.34,5.13c.43.15,3.09,0,6.72-1.42A22.12,22.12,0,0,0,36,113.5c.74-.7.38-1.14.15-.94a12.44,12.44,0,0,1-6.07.81c-3.33-.27-6-2.33-6-2.16s.11.69.81,1.8S25.8,115.2,24.2,115.43Zm31.22-65c1.39-.53,4.07-3.94,4.31-4.2.7-.72,5.11,4.4,5.52,4.08S67.49,48.7,67.62,48c.07-.89-.86-3.55-1.06-4.63a59.32,59.32,0,0,1-1-12.63c.26-5,2-10.52,1.79-10.84a20.29,20.29,0,0,0-6.18-1,30.35,30.35,0,0,0-5.86,2.62c-.28.23,1.93,3.67,1.86,8.39C57,45.35,53.45,48.81,53.45,49.1S54.74,50.65,55.42,50.39ZM48.48,63.84c4.68,2.25,5.94,3.29,7,4.29s5.57,5.83,5.81,6.21.54-.33,1-.93A15.76,15.76,0,0,1,68.46,68,97.83,97.83,0,0,0,78,62.79C79.86,61.65,85.21,58,87.73,54a34.21,34.21,0,0,0,5.83-16.55c.41-7.06-4.72-13.62-6.29-15.92a20.35,20.35,0,0,0-9-7.29c-4.7-2-14-2.54-15.6-2.74-.55-.07-3.61-3.19-4.32-4.89-.16-.39.36-1.51,1.14-2.29C59.86,4,62.34,6.5,62.6,6.72s1-.18,1.42-.58a21.93,21.93,0,0,1,2.21-1.39c.29-.18-.54-.84-1-1.3A39.48,39.48,0,0,0,60.28,0c-.69,0-1.14.51-1.8,1s-5.38,3.82-6.62,4.5-2,1-2,1.45A11.82,11.82,0,0,0,50,10.21c.28.66,2.23,4.82,2.45,5.38a1,1,0,0,0,1.24.59c.42-.14,6.22-1.4,7.94-1.53,5.93-.44,9.71.88,11.6,2.42s4.43,3.26,6.29,6.31a18.77,18.77,0,0,1,3,9.17c.25,3.54.08,10.44-3.24,14.8a15,15,0,0,1-9.84,6.28c-3.36.69-3.82.74-5.25-.36a28.55,28.55,0,0,1-3.67-3.65c-.21-.31-2.57,3.55-4.62,4.79-.46.29-7.46.22-10.5-1.89-4.62-3.22-12.23-8.93-9.14-19.59A.16.16,0,0,0,36,32.8a24,24,0,0,0-3.55,7.45c-.8,3.81.44,9.84,4,14.65S43.8,61.6,48.48,63.84Zm12.63-8.93c.32-.12,4.7,4.79,5.17,5.24s-.92,1.15-2.36,3.13-2.27,3.35-2.6,3.19S60.06,64.92,59,63.79s-2.73-3-2.66-3.31S61,55,61.11,54.91ZM16.63,109.85a15.22,15.22,0,0,1,3-.52c.38,0,.16-.54-.37-1s-1.93-1.35-.58-1.82,3.73.06,5.33.7a19.38,19.38,0,0,0-.41-2.94c-.27-1-1.14-2.62-1.21-3.31s-.29-1.23-.46-.67a1.87,1.87,0,0,1-1.19,1.23c-.47.09-.66-.23-.36-1.45a15.48,15.48,0,0,1,1.79-4.12,23.65,23.65,0,0,1,1.87-2.47,3.64,3.64,0,0,0,.19-1.4c-.08-.14-.77,0-1.39.11a4.73,4.73,0,0,0-1.87,1c-.22.25-.63.18-.88-.33a7.33,7.33,0,0,1-.48-4.7c.53-2.42,2.07-3.5,3.11-4.7s2.92-3,2.71-2.3-1.81,4.18-1.76,6,.8,3.24,1.11,3.23.77-.46,1.32-.82,1.83-1.12,1.23.42C26.26,92.7,26,98.37,26.1,98.78s1.21,2.33,1.54,3.13.57,1.27.71,1.07,1.55-1.4,1.7-1.1,1.24,6.06-2.54,7.73c0,0,.45.85,3,1.15s2.89,0,2.89,0,1.1-2.27,1.59-8.12c1.66-3.11,2.67-4.91,3.16-5.57A22.78,22.78,0,0,1,41.87,94c.51-.24,1.72.52,1.74,1.1a5.62,5.62,0,0,0,0,1.57c.15.69.32,1.49.57,1.32s1.27-1.07,2.17-4.89c.14-.61-.37-14.66-.46-17.08a.59.59,0,0,0-.31-.52c-2-1.14-13-7.74-17-15.88a.35.35,0,0,0-.6-.06c-2.6,3.53-4.41,6.1-7,4.38s.18-5.7.51-6.41,3.69-5.68,4.18-6.25.34-1-.87-.23A35,35,0,0,0,12.57,63.22,59.11,59.11,0,0,0,6.82,79.14a8,8,0,0,1-2,2A11.66,11.66,0,0,1,3.29,75.5c0-2.57.09-2.88-.38-2.27S-.57,78.65.1,89.22c.57,9,3.85,12.14,5.49,15.32s2.37,4.51,2.6,4.55a21.3,21.3,0,0,1,3.29.56A13.94,13.94,0,0,0,16.63,109.85ZM11.55,95.49a24.21,24.21,0,0,0,1.11-5.33c1,.18,1.71,3.69,2.52,5.11s1.78,1.27,1.67,1.55-3,2-3.75,2.77-1.11,1.88-1.34,1.73C9.73,100.05,10.43,98.48,11.55,95.49ZM9.63,107.15A12.19,12.19,0,0,0,8.16,103a16.63,16.63,0,0,0,2.46,2.55c.86.49,2.24.52,2.63.89s-.49.33-1,.55-1.39.85-1.7.93A.8.8,0,0,1,9.63,107.15ZM60.4,81c-.31-2.86-6.8-9.73-9.37-10.39,0,2.81,1.41,17,1.56,34.66a.3.3,0,0,0,.45.26,82.38,82.38,0,0,0,7.58-5.28C60.42,96.49,60.64,83.19,60.4,81Zm6.88-6.08a9.2,9.2,0,0,0-2.76,6.26V96.5c0,.42.67-.21,1-.68s2.55-2.34,4.79-4.95,2.34-4,2.5-5.22.31-14.6,0-14.44A40.82,40.82,0,0,0,67.28,74.91Zm43.28-3.07a30.48,30.48,0,0,0-14.1-12.22c-.57.07-1.43,1.37-1.72,1.94s-4.24,6.33-7.54,8.7S79,76.37,79,76.37a25.25,25.25,0,0,1,.43,12.15c-1.51,6-2.51,13.51-27,26.45s-34.95,18.9-39.9,31.48-4.24,18.69-3.88,20.2,1.36,4.67,2.15,5.61c0,0,1.08-3.53,4.09-4.46s4.78,2.2,4.83,4.07c.07,2.85-2.85,7.61-2.31,11.17a10.52,10.52,0,0,0,1.86,4.6s.5-4,3.09-3.88,3.51,4.72,5.88,7.89a19.65,19.65,0,0,0,17.3,8v-15.6s-2.73-.88-5.67-5-4-9.48.93-16.82c0,0-1.43,8.41.72,9.92,0,0-.36-1.65,2.22-6.39s6.21-10.5,10.32-13.66,16.22-8.86,22.77-12.36,14.32-9.2,18.51-17c4.77-8.83,3.34-12.43,6.17-13,1.93-.39,2.79,1.88,3.06,2.83a.15.15,0,0,0,.29,0c.61-1.42,2.37-6.71-.79-15.5a.17.17,0,0,0-.32,0A31.9,31.9,0,0,1,91.37,113.6c-10.2,7.05-15,8.41-28.47,12.87s-21,6.47-26.94,11.35c0,0,3.16-5.75,18.95-12.21S86,111.73,93.58,102.75s9-17.77,8.89-20.14a19.44,19.44,0,0,1,8,17.69.22.22,0,0,0,.43.11C112.55,96.2,116.93,82.93,110.56,71.84ZM53.91,201.65s6.39-3.53,8.73-20.09c.92-6.48.43-23.1.43-23.1s-5.37,3.6-7.43,6.77a146.39,146.39,0,0,1-.24,16.33C54.77,192.13,53.91,201.65,53.91,201.65Zm20.36-49.47c-1.53.78-6,3.12-6.74,3.87,0,0,3.61,42.82-14.21,51,0,0-2.47,22.79-9.47,33.37a.13.13,0,0,0,.17.19A52.19,52.19,0,0,0,60.23,226.8a1.25,1.25,0,0,0,.09-1.46,1.23,1.23,0,0,1-.1-1.13c.2-.27,1.69-.12,1.72-.12,1.07-1.5,2.83-4.62,4.09-6.91.3-.55.26-1.15.49-1.57a4.75,4.75,0,0,1,1-1.12A28.83,28.83,0,0,0,65.86,210c0-.79,2.35-.42,2.87,0a.46.46,0,0,0,.71-.18c4.18-10,4.43-14.36,4.62-17.74.23-3.91.86-31.56.73-39.54A.36.36,0,0,0,74.27,152.18Zm16.42-8.81a.15.15,0,0,0-.19.22c1.45,2,7.38,11,5.15,20-2.41,9.64-8.7,12.14-11.76,13.36a.61.61,0,0,0-.39.66,49.9,49.9,0,0,1-.07,9.83c-.59,6.11-1.19,8.25-1.15,11a.18.18,0,0,0,.25.17c1.39-.55,8.26-3.41,13.11-8.23,4.15-4.12,12.26-14.8,9.61-27.37C102.9,151.87,95.16,145.28,90.69,143.37Z" style="fill: #042625"/>
    </g>
  </g>
</svg>
