<svg xmlns="http://www.w3.org/2000/svg" viewBox="0 0 125.29 238.06">
  <g id="Layer_2" data-name="Layer 2">
    <g id="Layer_12" data-name="Layer 12">
      <path d="M37.65,49.11c10-7.46,12.28-19.45,12.28-19.45-8.33,13.84-22.38,18-23.84,18s-1-.52.31-3.12.63-4.17.63-4.17c-5.31,7.39-9.43,6.85-17.19,23.1C0,84.12,2.24,94,2.24,94,11.46,77.42,26.18,57.69,37.65,49.11ZM46,29C55.16,20.68,49.57,9.2,49.57,9.2c-3.43,14.51-14.28,27-14.28,27S36.8,37.27,46,29Zm32.51,9.85c5,2,11.52,6.11,16.46,17A92.1,92.1,0,0,0,89,33c-5.1-12.06-19.31-12.3-23-33,0,0-2.26,3.4,0,18.38S73.47,36.8,78.49,38.82Zm45.89,88s-.68,5.94-2,7.65-3.06,2.93-3.36.37a27.36,27.36,0,0,1,.06-8.37c.55-2.87,2.44-14.29,1.34-24.12s-7.51-21.19-13.38-28-10.15-10-15.4-14.72A82.75,82.75,0,0,1,81,48.51,39.16,39.16,0,0,0,89.48,66c7,8.18,14.55,14.65,22.51,36.46,3.64,10,1.61,19.31.27,31.1-.64,5.58-3.42,10.6-5.79,14.88-.08.15-.16.3-.25.45-1.26,1.86-2.7,3.29-3.64,5-.09.12-.19.24-.28.37-.47.6-.94,1.24-1.46,1.9l-.4.34A9.33,9.33,0,0,0,98,159.27l-.3.23-.29.22c-1,.71-2,1.41-3,2.09-.34.22-1.16,1.16-1.51,1.38-9.84,6.24-21.25,10.22-25,12.2-4.32,2.28-5.06,5.68-5.06,5.68a9.45,9.45,0,0,0-5.29-5.33c-4.2-1.82-15.8-7.27-23.41-13.41-1-.83-2.12-1.74-3.26-2.72l-.38-.34a17.46,17.46,0,0,0-3.57-4c-.13-.11-1.51-1.61-1.66-1.7-1-.59-11.91-12.28-14.55-17.76-4.55-9.43-7-16.7-7.28-23.85,0,0-3.36,6.8-3.14,11.8S2.06,131.32,1,135s-2.61,8.86,2.84,13.18,8.3,7.73,8.76,13.07,1.59,12.6,8.18,17.49,9.44,4.54,9.44,4.54a51.93,51.93,0,0,0-2.39-7.95c-1.25-2.73-3.86-6.93-4-10.68,0,0,2.16,3.64,4.44,7.84s6.25,9.43,11,11.36,10.14,2,11.73,6.14-2.18,5.9-4.34,6.7-4.43,2.16-6.82,2.27c0,0-2.2,1.34-.24,7.08a7.63,7.63,0,0,1,4.21-1.53,4.27,4.27,0,0,1,4.28,2.93c.37,1.47.61,3.54.18,3.91A3.61,3.61,0,0,0,47,213.68a37.77,37.77,0,0,0,.06,5.8c.25,1.47.43,4.52.49,4.83a1.69,1.69,0,0,0,1.28.85c.49,0-.06-1.22.86-1.89s5.38-1.53,6.23-2.69a4.63,4.63,0,0,0,.43-5.43c-1.34-2.51-1.71-2.75-1.34-2.94s1.12.25,2.27.49a35.08,35.08,0,0,0,5.54.49,20.57,20.57,0,0,0,5.57-.43c.73-.3,1,.31.55.74a10.27,10.27,0,0,0-1.89,3A1.58,1.58,0,0,0,67.6,218c.49.36-.13,1.71.67,2.13s4.34,3.73,5,4a2.09,2.09,0,0,1,1.22,1.65c0,.55.31,1,.68.43a15.31,15.31,0,0,0,1.71-3.54c.12-.92.06-5.62.06-6.41a30.49,30.49,0,0,0,.49-4c.06-2.62.18-3.05,1.1-3.72s2.26-1.4,2.81-1a2.12,2.12,0,0,0,1.34.49c.49,0,1.1.31,1-.31s0-4-.55-5.61-1.22-3-3.05-3.24-2.75-.43-4.1-1.89-3.18-3.55-2.87-4.89,1.4-2.08,3.18-3,6-3.24,7.58-3.67,1.71-.06,2.87-.42,3.91-1,5-2.08,3.18-2.5,4.4-4.64,2.14-3.85,2.38-3.24,0,2.45-.91,4.52-1.78,3.3-1.53,3.54,2.75-.3,3.85-1a17.82,17.82,0,0,0,7.33-6.17c3.06-4.4,3.67-5.68,3.49-7s-1-5.07.61-8.06a35.82,35.82,0,0,1,5.56-8.07,30.2,30.2,0,0,0,7.15-12.64C126,133.86,125.23,128.21,124.38,126.82Zm-1.78-22.88s4-11.06,0-21.44-13.2-14.23-17.11-16.06a68.74,68.74,0,0,1,11,15.82C120.53,90.81,122.6,103.94,122.6,103.94ZM68.34,227.51c-.94-.16-3.2.47-4.84.55s-5.22-.24-6.31,0-3.2.69-4.6.85c-1.23.15-1.17,1-.47,2s2.89,4.36,3.51,5.29,3.51,2,8.11,1.8,5.92-2.73,7.09-4.52,1-4.21.7-4.6A8.79,8.79,0,0,0,68.34,227.51Zm23.54-30.85c0-.46-.7,0-.7,0-.78.16-4.21.78-5.61,2.5,0,0-.39,2.72-.55,3.89a17.21,17.21,0,0,0,.62,5.06,6,6,0,0,1,.24,3.35,5.53,5.53,0,0,0,2.8-1.63,35.55,35.55,0,0,0,3.51-4.68c.7-.85.63-2.25,0-3.66S91.88,197.13,91.88,196.66Zm-54.8,1c-.08-.71-1.95-.63-2.89-.86a6.24,6.24,0,0,0-2.18,0,6.19,6.19,0,0,0,0,3,4.8,4.8,0,0,0,1.48,2.57,7.35,7.35,0,0,0,.94,2.8c.85,1.56,3.9,4,3.9,4A21.06,21.06,0,0,1,37.08,204C37,202.84,37.16,198.38,37.08,197.68ZM26.75,96.52s.08-6,4.63-16a2.23,2.23,0,0,1-2-2.31s-2.51-.11,2.46-10a53.58,53.58,0,0,0-9.33,8.47C19,81.12,10.82,95.14,9.36,102s0,20.71,2.63,24.81,6.87,8.78,9.5,10.67a42.4,42.4,0,0,1,6.58-24.82C36,100.11,46.63,94.56,55.83,93.1s18,1.46,26.16,7.74,14.62,17.67,15.35,27S92.66,149.91,87,154.29s-16.28,8.17-22,8.17S51.33,161.27,45.1,157a14.45,14.45,0,0,1-6-13.76,8.75,8.75,0,0,1,3.35-5c1.56-1.32,3.11-3.59,4.79-4.67s7.18-4.78,18.07-4c0,0,2-5.74,2.28-6.34a23.8,23.8,0,0,1,1,7.18s8,2.51,11.61,8.13,2.27,9,1.2,10.65-3.84,4.19-4.55,5.74a56.09,56.09,0,0,1-10.66,5s3.83.59,9.1-1.8,8.07-4.66,9.72-6.7a19.72,19.72,0,0,0,3.21-5.38,26,26,0,0,0-5.39-15c-5.51-7.42-7-9.05-13.28-11.81-5.36-2.36-10-1.89-14.36-.91A23.44,23.44,0,0,0,43.55,125c-4.55,4.54-7.6,12.44-8.47,15.19s-2.19,6.46-1.71,7.65,2.28,6.34,8.74,11.25,5.63,5.62,12.33,8.13,6.82,2.87,9,2.63,12.21-3.94,16.88-6.81,13-7.66,19.15-18.42,10.06-18.79,7.9-32.06S98,90.1,96.46,87.83s-13-13.24-18.56-19.5c-6.7-7.54-11.3-14-12.37-19.82-.52-2.82-1.59-3.59-2.15-7.89,0,0-2.55,1.75-5.91,8.93S50.29,60.79,47,64.46,32.73,78.18,26.75,96.52Zm8.88,51c-.09-1.83,1.83-4.43,1.83-4.43A14.36,14.36,0,0,0,41.32,155S35.79,150.76,35.63,147.53Zm26-7.28a5.93,5.93,0,1,0,5.94,5.93A5.94,5.94,0,0,0,61.66,140.25Z" style="fill: #042625"/>
    </g>
  </g>
</svg>
